Coordinates
version=1
nRows=13
nColumns=38
inDegrees=no

Units are S.I. units (second, meters, Newtons, ...)
If the header above contains a line with 'inDegrees', this indicates whether rotational values are in degrees (yes) or radians (no).

endheader
time	pelvis_tilt	pelvis_list	pelvis_rotation	pelvis_tx	pelvis_ty	pelvis_tz	hip_flexion_r	hip_adduction_r	hip_rotation_r	knee_angle_r	ankle_angle_r	subtalar_angle_r	mtp_angle_r	hip_flexion_l	hip_adduction_l	hip_rotation_l	knee_angle_l	ankle_angle_l	subtalar_angle_l	mtp_angle_l	lumbar_extension	lumbar_bending	lumbar_rotation	arm_flex_r	arm_add_r	arm_rot_r	elbow_flex_r	pro_sup_r	wrist_flex_r	wrist_dev_r	arm_flex_l	arm_add_l	arm_rot_l	elbow_flex_l	pro_sup_l	wrist_flex_l	wrist_dev_l
1.37	2.9776	1.49934	-1.27494	0.591065	0.807096	0.93922	0.0815251	0.0560267	-0.229398	0.250747	0.154342	0	0	0.25247	-0.203847	-0.106157	1.21699	0.122761	0	0	-0.179378	0.0265991	-0.138236	-0.16	-0.209407	0.240937	0.639477	0.326486	0	0	-0.0370671	-0.336706	0.230738	0.686231	1.40095	0	0
1.38	3.05254	1.50018	-1.35527	0.591828	0.816446	0.940785	0.062381	0.0542823	-0.221433	0.235466	0.154127	0	0	0.269232	-0.199307	-0.116059	1.20301	0.137479	0	0	-0.181011	0.0199605	-0.130849	-0.164773	-0.209097	0.235732	0.642568	0.327015	0	0	-0.0431632	-0.336215	0.230758	0.687888	1.3951	0	0
1.39	3.13129	1.5002	-1.43986	0.592586	0.825762	0.942248	0.0429317	0.0521806	-0.213446	0.220248	0.154281	0	0	0.283963	-0.195	-0.128592	1.18486	0.14988	0	0	-0.183209	0.0131722	-0.122905	-0.169601	-0.208922	0.230855	0.645878	0.329525	0	0	-0.0490108	-0.335682	0.230368	0.689656	1.39082	0	0
1.4	-3.07416	1.49909	-1.52393	0.59333	0.835038	0.943619	0.0230263	0.0498857	-0.204868	0.205316	0.154902	0	0	0.296337	-0.191	-0.143009	1.16317	0.159829	0	0	-0.186301	0.00649822	-0.114448	-0.174306	-0.208854	0.224607	0.650118	0.332714	0	0	-0.0545397	-0.335217	0.230276	0.691334	1.38569	0	0
1.41	-3.00446	1.49713	-1.60012	0.594024	0.844289	0.944863	0.00308782	0.047541	-0.196398	0.191236	0.15637	0	0	0.306869	-0.18788	-0.159271	1.13858	0.168423	0	0	-0.189891	0.000293973	-0.10615	-0.178438	-0.209217	0.218134	0.655185	0.335609	0	0	-0.0601125	-0.334602	0.229658	0.692675	1.38081	0	0
1.42	-2.95054	1.49459	-1.66093	0.594712	0.853549	0.945924	-0.0171521	0.0458474	-0.187342	0.177217	0.157909	0	0	0.315971	-0.187591	-0.180145	1.11135	0.176441	0	0	-0.193747	-0.00497718	-0.0976954	-0.181994	-0.210142	0.212299	0.660987	0.338322	0	0	-0.0658324	-0.333884	0.228861	0.694358	1.37624	0	0
1.43	-2.91416	1.49179	-1.70438	0.595344	0.862932	0.946735	-0.0371621	0.0447381	-0.179905	0.164465	0.160311	0	0	0.323309	-0.195201	-0.213709	1.08332	0.184386	0	0	-0.197405	-0.00903348	-0.0893151	-0.185281	-0.21164	0.207548	0.667207	0.340685	0	0	-0.0721027	-0.332946	0.227733	0.69626	1.37217	0	0
1.44	-2.86777	1.49023	-1.7559	0.595696	0.871908	0.94729	-0.0542038	0.0420822	-0.17558	0.153801	0.163531	0	0	0.33191	-0.192958	-0.233742	1.05095	0.191573	0	0	-0.200238	-0.0135916	-0.0835071	-0.186646	-0.212867	0.203386	0.672474	0.343128	0	0	-0.0775671	-0.332156	0.226514	0.69729	1.36854	0	0
1.45	-2.83431	1.48933	-1.79323	0.595883	0.880817	0.94757	-0.0701197	0.0403381	-0.172355	0.144259	0.166884	0	0	0.341036	-0.189863	-0.250536	1.01679	0.19705	0	0	-0.202314	-0.0168019	-0.0794589	-0.187057	-0.213957	0.199186	0.677409	0.345924	0	0	-0.083209	-0.331355	0.22527	0.698028	1.36501	0	0
1.46	-2.80831	1.48723	-1.82453	0.596122	0.889748	0.947806	-0.0881135	0.0388723	-0.164736	0.132813	0.169326	0	0	0.346777	-0.18727	-0.270143	0.979175	0.200925	0	0	-0.205779	-0.0198345	-0.0741851	-0.187247	-0.214509	0.191439	0.683282	0.352224	0	0	-0.0884863	-0.329718	0.22153	0.697905	1.36813	0	0
1.47	-2.78773	1.48657	-1.85032	0.596262	0.89866	0.947694	-0.104068	0.0377903	-0.158709	0.122604	0.173033	0	0	0.353447	-0.184917	-0.289657	0.940037	0.203379	0	0	-0.207538	-0.0220328	-0.0693683	-0.186838	-0.215275	0.185364	0.688503	0.355508	0	0	-0.0939002	-0.328051	0.219105	0.697352	1.36691	0	0
1.48	-2.77327	1.48721	-1.86849	0.596202	0.907514	0.947234	-0.118157	0.0374036	-0.155721	0.113874	0.177824	0	0	0.361712	-0.18225	-0.30686	0.900239	0.205274	0	0	-0.20799	-0.0231161	-0.0663169	-0.185788	-0.217364	0.184911	0.694395	0.346207	0	0	-0.0993511	-0.326351	0.216615	0.696288	1.36715	0	0
1.49	-2.76549	1.48834	-1.879	0.596034	0.916323	0.946544	-0.131617	0.037678	-0.153308	0.105869	0.182948	0	0	0.370202	-0.179419	-0.322883	0.859341	0.206982	0	0	-0.208252	-0.0234246	-0.0639955	-0.184299	-0.218107	0.1797	0.698928	0.348225	0	0	-0.104101	-0.324737	0.214816	0.694521	1.36634	0	0
